<?xml version="1.0" encoding="utf-8"?>
<!-- Generated by IcoMoon.io -->
<!DOCTYPE svg PUBLIC "-//W3C//DTD SVG 1.1//EN" "http://www.w3.org/Graphics/SVG/1.1/DTD/svg11.dtd">
<svg version="1.1" xmlns="http://www.w3.org/2000/svg" xmlns:xlink="http://www.w3.org/1999/xlink" width="512" height="512" viewBox="0 0 512 512">
<g>
</g>
	<path d="M257.894 156.948c-53.258 0-96.42 43.561-96.42 97.26 0 53.719 43.161 97.249 96.42 97.249 53.197 0 96.379-43.53 96.379-97.25 0-53.698-43.182-97.26-96.379-97.26zM257.894 309.873c-30.464 0-55.163-24.945-55.163-55.665s24.699-55.624 55.163-55.624c30.423 0 55.101 24.904 55.101 55.624s-24.688 55.665-55.101 55.665z" fill="#000000" />
	<path d="M241.808 43.499h32.144v79.575h-32.144v-79.575z" fill="#000000" />
	<path d="M417.209 115.897l-22.723-22.917-55.757 56.279 22.723 22.907z" fill="#000000" />
	<path d="M389.468 238.407h78.899v32.389h-78.899v-32.389z" fill="#000000" />
	<path d="M396.012 416.86l22.723-22.917-55.767-56.259-22.712 22.897z" fill="#000000" />
	<path d="M242.473 388.915h32.144v79.575h-32.144v-79.575z" fill="#000000" />
	<path d="M96.266 396.073l22.722 22.938 55.778-56.289-22.692-22.928z" fill="#000000" />
	<path d="M43.633 240.537h78.879v32.43h-78.879v-32.43z" fill="#000000" />
	<path d="M115.394 93.051l-22.681 22.907 55.757 56.258 22.702-22.917z" fill="#000000" />
</svg>
